<svg width="75" height="75" viewBox="0 0 75 75" fill="none" xmlns="http://www.w3.org/2000/svg">
<rect x="41" y="3" width="31" height="31" rx="1" fill="#0489F5"/>
<path d="M3 56L11.5 41.2776L28.5 41.2776L37 56L28.5 70.7224L11.5 70.7224L3 56Z" fill="#0489F5"/>
<circle cx="19.5" cy="18.5" r="15.5" fill="#0489F5"/>
<path d="M56.9487 70L70.4873 57.202C70.9201 56.7228 71.3092 56.1917 71.6428 55.6232C71.9717 55.063 72.2457 54.4652 72.4578 53.8462C72.8172 52.7954 73 51.7119 73 50.6248C73 45.3173 68.8436 41 63.7341 41C61.1619 41 58.7364 42.1044 56.9997 44.0136C55.2636 42.1043 52.8376 41 50.2653 41C45.1563 41 41 45.3174 41 50.6248C41 51.6934 41.1765 52.7602 41.5239 53.795C41.7457 54.4534 42.0374 55.0892 42.3928 55.6834C42.6914 56.1834 43.0359 56.6574 43.417 57.0926L43.4898 57.1688L56.9487 70Z" fill="#0489F5"/>
</svg>
