<?xml version="1.0" encoding="utf-8"?>
<!-- Generator: Adobe Illustrator 17.0.0, SVG Export Plug-In . SVG Version: 6.00 Build 0)  -->
<!DOCTYPE svg PUBLIC "-//W3C//DTD SVG 1.1//EN" "http://www.w3.org/Graphics/SVG/1.1/DTD/svg11.dtd">
<svg version="1.1" id="Layer_1" xmlns="http://www.w3.org/2000/svg" xmlns:xlink="http://www.w3.org/1999/xlink" x="0px" y="0px"
	 width="50px" height="50px" viewBox="0 0 50 50" enable-background="new 0 0 50 50" xml:space="preserve">
<path fill="#7DC3FC" d="M15,8h22.5V2.5C37.5,1.119,36.381,0,35,0H2.5C1.119,0,0,1.119,0,2.5v35C0,38.881,1.119,40,2.5,40h8V12.5
	C10.5,10.015,12.515,8,15,8z"/>
<path id="_x3C_path_x3E_" fill="#0489F5" d="M47.5,10H15c-1.381,0-2.5,1.119-2.5,2.5v35c0,1.38,1.119,2.5,2.5,2.5h32.5
	c1.38,0,2.5-1.12,2.5-2.5v-35C50,11.119,48.88,10,47.5,10z M25.757,30.169c-0.37-0.41-0.336-1.043,0.074-1.412l5-4.5
	c0.41-0.369,1.043-0.336,1.412,0.074c0.37,0.411,0.336,1.043-0.074,1.412l-5,4.5C26.758,30.613,26.126,30.579,25.757,30.169z
	 M36.669,30.743l-5,4.5c-0.41,0.37-1.043,0.336-1.412-0.074c-0.37-0.41-0.336-1.043,0.074-1.412l5-4.5
	c0.41-0.37,1.043-0.336,1.412,0.074C37.113,29.742,37.08,30.374,36.669,30.743z"/>
</svg>
