<?xml version="1.0" encoding="utf-8"?>
<!-- Generator: Adobe Illustrator 17.0.0, SVG Export Plug-In . SVG Version: 6.00 Build 0)  -->
<!DOCTYPE svg PUBLIC "-//W3C//DTD SVG 1.1//EN" "http://www.w3.org/Graphics/SVG/1.1/DTD/svg11.dtd">
<svg version="1.1" id="Layer_1" xmlns="http://www.w3.org/2000/svg" xmlns:xlink="http://www.w3.org/1999/xlink" x="0px" y="0px"
	 width="50px" height="50px" viewBox="0 0 50 50" enable-background="new 0 0 50 50" xml:space="preserve">
<g>
	<path fill="#0489F5" d="M44.358,3.503C44.358,1.572,42.786,0,40.855,0H9.151C7.22,0,5.648,1.572,5.648,3.503v8.594h38.71V3.503z"/>
	<path fill="#0489F5" d="M35.205,29.839H14.792c-1.042,0-1.89,0.848-1.89,1.89V48.11c0,1.042,0.848,1.89,1.89,1.89h20.413
		c1.042,0,1.89-0.848,1.89-1.89V31.729C37.095,30.687,36.247,29.839,35.205,29.839z M29.837,45.161h-9.677
		c-0.891,0-1.613-0.722-1.613-1.613c0-0.891,0.722-1.613,1.613-1.613h9.677c0.891,0,1.613,0.722,1.613,1.613
		C31.45,44.44,30.728,45.161,29.837,45.161z M29.837,37.903h-9.677c-0.891,0-1.613-0.722-1.613-1.613s0.722-1.613,1.613-1.613h9.677
		c0.891,0,1.613,0.722,1.613,1.613S30.728,37.903,29.837,37.903z"/>
	<path fill="#0489F5" d="M47.302,15.323H2.695c-1.042,0-1.89,0.848-1.89,1.89v18.8c0,1.042,0.848,1.89,1.89,1.89h6.981v-6.174
		c0-2.822,2.294-5.116,5.116-5.116h20.413c2.822,0,5.116,2.294,5.116,5.116v6.174h6.981c1.042,0,1.89-0.848,1.89-1.89v-18.8
		C49.192,16.17,48.344,15.323,47.302,15.323z M42.74,22.581h-2.419c-0.891,0-1.613-0.722-1.613-1.613
		c0-0.891,0.722-1.613,1.613-1.613h2.419c0.891,0,1.613,0.722,1.613,1.613C44.353,21.859,43.631,22.581,42.74,22.581z"/>
</g>
</svg>
