<?xml version="1.0" encoding="utf-8"?>
<!-- Generator: Adobe Illustrator 17.0.0, SVG Export Plug-In . SVG Version: 6.00 Build 0)  -->
<!DOCTYPE svg PUBLIC "-//W3C//DTD SVG 1.1//EN" "http://www.w3.org/Graphics/SVG/1.1/DTD/svg11.dtd">
<svg version="1.1" id="Layer_1" xmlns="http://www.w3.org/2000/svg" xmlns:xlink="http://www.w3.org/1999/xlink" x="0px" y="0px"
	 width="50px" height="50px" viewBox="0 0 50 50" enable-background="new 0 0 50 50" xml:space="preserve">
<g>
	
		<ellipse transform="matrix(-0.6819 -0.7315 0.7315 -0.6819 4.9738 72.5753)" fill="#0489F5" cx="18.269" cy="35.206" rx="3.433" ry="3.95"/>
	
		<ellipse transform="matrix(-0.6819 -0.7315 0.7315 -0.6819 40.4891 88.0247)" fill="#0489F5" cx="39.386" cy="35.208" rx="3.433" ry="3.95"/>
	<circle fill="#0489F5" cx="2.199" cy="19.51" r="1.667"/>
	<path fill="#0489F5" d="M49.742,22.996c-0.81-1.89-1.788-3.704-2.924-5.418c-1.074-1.603-2.876-2.552-4.933-2.586
		c-1.227-0.019-2.431-0.031-3.34-0.031l-0.008-0.008c-0.117-1.961-1.547-3.463-3.554-3.643c-1.306-0.116-6.478-0.201-8.96-0.201
		c-0.986,0-2.401,0.014-3.833,0.037v-0.006H22.18H4.967c-0.219,0-0.436,0.043-0.638,0.127c-0.202,0.084-0.386,0.207-0.541,0.362
		c-0.155,0.155-0.278,0.339-0.362,0.541c-0.084,0.203-0.127,0.419-0.127,0.638v0.008c0,0.44,0.175,0.863,0.486,1.174
		c0.311,0.311,0.734,0.486,1.174,0.486h3.47c0.418,0.031,0.809,0.218,1.094,0.525c0.285,0.307,0.444,0.71,0.444,1.129v0.009
		c0.001,0.219-0.042,0.437-0.125,0.639c-0.083,0.203-0.206,0.387-0.361,0.542C9.326,17.477,9.142,17.6,8.94,17.685
		c-0.203,0.084-0.42,0.128-0.639,0.128H6.521c-0.442,0-0.866,0.176-1.179,0.488c-0.313,0.313-0.488,0.737-0.488,1.179
		c0,0.219,0.043,0.436,0.127,0.638c0.084,0.202,0.206,0.386,0.361,0.541c0.155,0.155,0.339,0.278,0.541,0.362
		c0.202,0.084,0.419,0.127,0.638,0.127h1.779c0.442,0,0.867,0.176,1.179,0.488s0.489,0.737,0.489,1.179
		c0,0.442-0.176,0.867-0.489,1.18c-0.313,0.313-0.737,0.489-1.179,0.489H1.645c-0.442,0-0.866,0.176-1.179,0.488
		c-0.313,0.313-0.489,0.737-0.489,1.179c0,0.442,0.176,0.867,0.489,1.179c0.313,0.313,0.737,0.489,1.179,0.489h6.656
		c0.442,0,0.867,0.176,1.179,0.488s0.489,0.737,0.489,1.179c-0.001,0.442-0.176,0.866-0.489,1.178
		c-0.313,0.312-0.737,0.488-1.179,0.488H6.242c-0.442,0-0.866,0.176-1.179,0.488c-0.313,0.313-0.488,0.737-0.488,1.179
		c0,0.442,0.176,0.866,0.488,1.179c0.313,0.313,0.737,0.489,1.179,0.489l6.568-0.005l0.546-1.36
		c1.118-2.063,3.343-3.523,5.698-3.523c2.976,0,5.089,2.33,4.856,5.262h9.924l0.001-0.003c0.593-2.93,3.36-5.258,6.335-5.258
		c2.864,0,4.929,2.159,4.872,4.936c3.098,0.081,3.96-3.998,3.96-3.998c0.261-1.141,0.65-3.364,0.977-5.547
		C50.086,24.316,50.004,23.626,49.742,22.996z M17.292,18.589h-2.238c-0.002,0-0.004,0.001-0.006,0.002
		c-0.002,0.001-0.003,0.003-0.003,0.005l-0.206,1.465c0,0.001,0,0.002,0,0.004c0,0.001,0.001,0.002,0.001,0.003
		c0.001,0.001,0.002,0.002,0.003,0.002s0.002,0.001,0.003,0.001h1.666c0.082-0.002,0.163,0.014,0.238,0.047
		c0.075,0.033,0.141,0.082,0.195,0.144c0.053,0.062,0.092,0.135,0.114,0.214c0.022,0.079,0.025,0.162,0.01,0.242
		c-0.029,0.177-0.118,0.338-0.253,0.456c-0.135,0.118-0.307,0.186-0.486,0.191h-1.668c-0.002,0-0.004,0.001-0.006,0.002
		c-0.002,0.001-0.003,0.003-0.003,0.005l-0.299,2.128c-0.029,0.177-0.118,0.338-0.253,0.457c-0.135,0.118-0.306,0.186-0.486,0.191
		c-0.082,0.002-0.163-0.013-0.238-0.047c-0.075-0.033-0.141-0.083-0.195-0.145c-0.053-0.062-0.092-0.135-0.113-0.214
		c-0.021-0.079-0.025-0.162-0.01-0.242l0.775-5.52c0.031-0.187,0.125-0.357,0.268-0.482c0.142-0.125,0.324-0.196,0.513-0.202h2.854
		c0.082-0.002,0.163,0.013,0.238,0.047c0.075,0.033,0.141,0.083,0.195,0.145c0.053,0.062,0.092,0.135,0.113,0.214
		c0.021,0.079,0.025,0.162,0.01,0.242c-0.029,0.176-0.118,0.337-0.253,0.454C17.641,18.517,17.47,18.584,17.292,18.589z
		 M23.782,19.563c-0.068,0.541-0.289,1.051-0.638,1.47c-0.213,0.252-0.483,0.448-0.788,0.573c-0.001,0.002-0.002,0.003-0.002,0.005
		c0,0.002,0.001,0.004,0.002,0.005l0.555,1.601c0.149,0.43-0.234,0.931-0.712,0.931h-0.031c-0.116,0.003-0.23-0.03-0.325-0.096
		c-0.096-0.066-0.168-0.16-0.206-0.269l-0.671-1.953c-0.001-0.001-0.002-0.003-0.004-0.004c-0.001-0.001-0.003-0.001-0.005-0.001
		h-1.426c-0.002,0-0.004,0.001-0.005,0.002c-0.002,0.001-0.003,0.003-0.003,0.005L19.288,23.5c-0.029,0.177-0.118,0.338-0.253,0.457
		c-0.135,0.118-0.306,0.186-0.486,0.191c-0.082,0.002-0.163-0.014-0.238-0.047c-0.075-0.033-0.141-0.082-0.195-0.144
		c-0.053-0.062-0.092-0.135-0.113-0.214c-0.021-0.079-0.025-0.162-0.01-0.242l0.775-5.52c0.031-0.187,0.125-0.357,0.268-0.482
		c0.143-0.125,0.324-0.196,0.513-0.202h2.207c0,0,0.969-0.03,1.517,0.44c0.232,0.206,0.396,0.479,0.469,0.781
		C23.824,18.861,23.838,19.216,23.782,19.563z M29.113,18.326c-0.126,0.11-0.286,0.173-0.454,0.178h-2.567
		c-0.002,0-0.004,0.001-0.005,0.002c-0.002,0.001-0.003,0.003-0.003,0.005l-0.204,1.449c0,0.001,0,0.002,0,0.004
		c0,0.001,0.001,0.002,0.002,0.003c0.001,0.001,0.002,0.002,0.003,0.002s0.002,0.001,0.004,0.001h1.994
		c0.076-0.002,0.152,0.013,0.222,0.043c0.07,0.031,0.132,0.077,0.182,0.135c0.05,0.058,0.086,0.126,0.106,0.2
		c0.02,0.074,0.023,0.151,0.009,0.226c-0.027,0.165-0.11,0.316-0.236,0.426c-0.126,0.11-0.286,0.173-0.454,0.178h-1.995
		c-0.002,0-0.004,0.001-0.005,0.002c-0.002,0.001-0.003,0.003-0.003,0.005l-0.245,1.744c0,0.002,0.001,0.005,0.003,0.007
		c0.002,0.002,0.004,0.003,0.006,0.003h2.565c0.076-0.002,0.152,0.013,0.222,0.043c0.07,0.031,0.132,0.077,0.182,0.135
		c0.05,0.058,0.086,0.126,0.106,0.2c0.02,0.074,0.023,0.151,0.01,0.226c-0.027,0.165-0.11,0.316-0.236,0.427
		c-0.126,0.11-0.286,0.173-0.454,0.178h-3.184c-0.086,0.001-0.171-0.016-0.249-0.052c-0.078-0.035-0.148-0.088-0.204-0.153
		s-0.097-0.142-0.12-0.225c-0.023-0.083-0.027-0.17-0.013-0.254l0.771-5.48c0.031-0.187,0.125-0.357,0.268-0.482
		c0.143-0.125,0.324-0.196,0.513-0.202h3.183c0.076-0.002,0.151,0.013,0.22,0.044c0.069,0.031,0.131,0.076,0.18,0.133
		c0.049,0.057,0.086,0.125,0.106,0.197c0.02,0.073,0.024,0.149,0.012,0.224C29.322,18.065,29.239,18.216,29.113,18.326z
		 M34.446,18.326c-0.126,0.11-0.286,0.173-0.454,0.178h-2.567c-0.002,0-0.004,0.001-0.005,0.002
		c-0.002,0.001-0.003,0.003-0.003,0.005l-0.203,1.449c0,0.001,0,0.002,0,0.004c0,0.001,0.001,0.002,0.002,0.003
		c0.001,0.001,0.002,0.002,0.003,0.002s0.002,0.001,0.003,0.001h1.994c0.076-0.002,0.152,0.013,0.222,0.043
		c0.07,0.031,0.132,0.077,0.182,0.135c0.05,0.058,0.086,0.126,0.106,0.2c0.02,0.074,0.023,0.151,0.01,0.226
		c-0.027,0.165-0.11,0.316-0.236,0.426c-0.126,0.11-0.286,0.173-0.454,0.178h-1.996c-0.002,0-0.004,0.001-0.005,0.002
		c-0.002,0.001-0.003,0.003-0.003,0.005l-0.245,1.744c0,0.002,0.001,0.005,0.003,0.007c0.002,0.002,0.004,0.003,0.006,0.003h2.565
		c0.076-0.002,0.152,0.013,0.222,0.043c0.07,0.031,0.132,0.077,0.182,0.135c0.05,0.058,0.086,0.126,0.106,0.2
		c0.02,0.074,0.023,0.151,0.01,0.226c-0.027,0.165-0.11,0.316-0.236,0.427c-0.126,0.11-0.286,0.173-0.454,0.178h-3.184
		c-0.086,0.001-0.171-0.016-0.249-0.052c-0.078-0.035-0.148-0.088-0.204-0.153s-0.097-0.142-0.12-0.225
		c-0.023-0.083-0.027-0.17-0.013-0.254l0.771-5.48c0.031-0.187,0.125-0.357,0.268-0.482s0.324-0.196,0.513-0.202h3.183
		c0.076-0.002,0.151,0.013,0.22,0.044c0.069,0.031,0.131,0.076,0.18,0.133c0.049,0.057,0.086,0.125,0.106,0.197
		c0.02,0.073,0.024,0.149,0.011,0.224C34.655,18.065,34.572,18.216,34.446,18.326z M45.846,24.167h-8.325l0.872-6.894
		c0.872,0,2.001,0.012,3.134,0.03c1.373,0.022,2.574,0.653,3.295,1.729c0.77,1.161,1.462,2.371,2.071,3.623
		C47.215,23.313,46.622,24.167,45.846,24.167z"/>
	<path fill="#0489F5" d="M21.53,18.504h-1.542l-0.293,2.113h1.543c1.113,0,1.243-1.057,1.238-1.057
		C22.662,18.431,21.53,18.504,21.53,18.504z"/>
</g>
</svg>
